<?xml version="1.0" encoding="utf-8"?>
<!-- Generator: Adobe Illustrator 17.0.0, SVG Export Plug-In . SVG Version: 6.00 Build 0)  -->
<!DOCTYPE svg PUBLIC "-//W3C//DTD SVG 1.1//EN" "http://www.w3.org/Graphics/SVG/1.1/DTD/svg11.dtd">
<svg version="1.1" id="Layer_1" xmlns="http://www.w3.org/2000/svg" xmlns:xlink="http://www.w3.org/1999/xlink" x="0px" y="0px"
	 width="500px" height="500px" viewBox="0 0 500 500" enable-background="new 0 0 500 500" xml:space="preserve">
<g id="MENU" display="none">
	<g display="inline">
		<path fill="#C1EE5E" d="M420,60c0,11.05-8.95,20-20,20H100c-11.05,0-20-8.95-20-20s8.95-20,20-20h300C411.05,40,420,48.95,420,60z
			"/>
		<path fill="#C1EE5E" d="M420,140c0,11.05-8.95,20-20,20H100c-11.05,0-20-8.95-20-20s8.95-20,20-20h300
			C411.05,120,420,128.95,420,140z"/>
		<path fill="#C1EE5E" d="M420,220c0,11.05-8.95,20-20,20H100c-11.05,0-20-8.95-20-20s8.95-20,20-20h300
			C411.05,200,420,208.95,420,220z"/>
		<g>
			<path fill="#C1EE5E" d="M80,320h27.317l13.254,53.421c1.4,5.927,2.505,11.571,3.313,16.931
				c0.808,5.362,1.589,10.413,2.344,15.153h0.646c0.754-4.741,1.536-9.792,2.344-15.153c0.808-5.36,1.912-11.004,3.314-16.931
				L146.19,320h26.751v138.036h-19.558v-45.662c0-7.003,0.067-13.739,0.202-20.204c0.134-6.465,0.309-12.405,0.525-17.82
				c0.215-5.415,0.457-10.195,0.727-14.345c0.269-4.148,0.511-7.435,0.727-9.86h-1.535l-20.851,90.111h-13.254l-21.013-90.111
				h-1.536c0.215,2.424,0.457,5.712,0.727,9.86c0.269,4.15,0.511,8.931,0.727,14.345c0.215,5.415,0.39,11.355,0.525,17.82
				c0.134,6.466,0.202,13.201,0.202,20.204v45.662H80V320z"/>
			<path fill="#C1EE5E" d="M196.539,320h51.157v16.487h-30.225v41.298h23.356v16.486h-23.356v47.278h31.034v16.487h-51.966
				L196.539,320L196.539,320z"/>
			<path fill="#C1EE5E" d="M263.618,320h16.972l33.458,92.374h0.486c-0.162-2.154-0.378-4.553-0.646-7.193
				c-0.271-2.639-0.513-5.643-0.727-9.011c-0.216-3.367-0.405-7.179-0.566-11.435s-0.242-9.052-0.242-14.386V320h18.749v138.036
				h-17.133l-33.297-89.95h-0.646c0.162,2.424,0.376,5.051,0.646,7.88c0.269,2.829,0.511,6.156,0.727,9.981
				c0.215,3.826,0.404,8.283,0.566,13.375c0.162,5.092,0.243,11.14,0.243,18.144v40.57H263.62V320H263.618z"/>
			<path fill="#C1EE5E" d="M354.215,320h21.093v101.183c0,4.312,0.215,7.894,0.646,10.749c0.431,2.857,1.117,5.132,2.061,6.829
				c0.942,1.698,2.154,2.91,3.636,3.637c1.481,0.727,3.246,1.091,5.294,1.091s3.839-0.364,5.375-1.091s2.801-1.939,3.799-3.637
				c0.997-1.698,1.75-3.972,2.263-6.829c0.511-2.855,0.767-6.437,0.767-10.749V320H420v95.607c0,6.736-0.539,12.5-1.616,17.296
				c-1.079,4.796-2.506,8.809-4.283,12.042c-1.778,3.232-3.812,5.792-6.102,7.678c-2.291,1.887-4.661,3.327-7.112,4.323
				c-2.452,0.997-4.89,1.629-7.314,1.899c-2.425,0.269-4.634,0.404-6.627,0.404c-1.994,0-4.19-0.135-6.587-0.404
				c-2.398-0.27-4.808-0.902-7.233-1.899c-2.425-0.997-4.768-2.437-7.031-4.323s-4.283-4.445-6.061-7.678s-3.192-7.234-4.243-12.002
				c-1.05-4.768-1.576-10.546-1.576-17.336V320z"/>
		</g>
	</g>
</g>
<g id="Cross">
	<g>
		<path fill="#C1EE5E" d="M250,70c48.08,0,93.282,18.723,127.279,52.721C411.277,156.718,430,201.92,430,250
			s-18.723,93.282-52.721,127.279C343.282,411.277,298.08,430,250,430s-93.282-18.723-127.279-52.721
			C88.723,343.282,70,298.08,70,250s18.723-93.282,52.721-127.279C156.718,88.723,201.92,70,250,70 M250,40
			C134.02,40,40,134.02,40,250s94.02,210,210,210s210-94.02,210-210S365.98,40,250,40L250,40z"/>
		<path fill="#C1EE5E" d="M351.138,351.138c-6.574,6.574-17.223,6.574-23.797,0L148.862,172.659c-6.574-6.574-6.574-17.223,0-23.797
			s17.223-6.574,23.797,0l178.479,178.479C357.712,333.915,357.712,344.564,351.138,351.138z"/>
		<path fill="#C1EE5E" d="M351.138,148.862c6.574,6.574,6.574,17.223,0,23.797L172.659,351.138c-6.574,6.574-17.223,6.574-23.797,0
			s-6.574-17.223,0-23.797l178.479-178.479C333.915,142.288,344.564,142.288,351.138,148.862z"/>
	</g>
</g>
</svg>
